<?xml version="1.0" encoding="UTF-8" standalone="no"?>
<svg width="130px" height="122px" viewBox="0 0 130 122" version="1.1" xmlns="http://www.w3.org/2000/svg" xmlns:xlink="http://www.w3.org/1999/xlink">
    <!-- Generator: Sketch 3.8.2 (29753) - http://www.bohemiancoding.com/sketch -->
    <title>penguin logo</title>
    <desc>Created with Sketch.</desc>
    <defs></defs>
    <g id="Page-1" stroke="none" stroke-width="1" fill="none" fill-rule="evenodd">
        <g id="penguin-logo" transform="translate(1.000000, 1.000000)" stroke="#00E0FF">
            <g>
                <path d="M110.445951,67.9194256 C113.616171,68.8421017 113.451506,64.1233795 113.616171,60.1547038 C114.976709,27.3825784 90.3949819,0.364181185 58.2335764,0.364181185 C26.072578,0.364181185 0.000814449919,27.1333798 0.000814449919,60.155122 C0.000814449919,93.176446 26.072578,119.945645 58.2335764,119.945645 C68.6304368,119.946063 76.575803,117.802787 83.6598883,112.899094 C84.5161204,112.3063 86.5844431,110.923291 85.9267765,110.764987 L107.677609,92.0885017 C112.410393,88.7081613 117.501063,87.657303 121.474524,84.587135 C123.806657,82.785169 125.35919,82.8971097 127.386793,78.9663769 L110.445951,67.9194256 Z" id="Combined-Shape"></path>
                <path d="M80.9823842,70.5817422 C86.2115599,70.5817422 90.4499573,66.229547 90.4499573,60.8609059 C90.4499573,55.4922648 86.2115599,51.1400697 80.9823842,51.1400697 C75.7536158,51.1400697 71.5148112,55.4922648 71.5148112,60.8609059 C71.5148112,66.229547 75.7536158,70.5817422 80.9823842,70.5817422 Z" id="Fill-4"></path>
                <path d="M86.3325057,56.32223 C86.3325057,58.5160976 84.6001708,60.2943554 82.4634614,60.2943554 C80.3271593,60.2943554 78.5952315,58.5160976 78.5952315,56.32223 C78.5952315,54.1287805 80.3271593,52.3501045 82.4634614,52.3501045 C84.6001708,52.3501045 86.3325057,54.1287805 86.3325057,56.32223" id="Fill-5"></path>
                <path d="M109.230358,91.4972822 C109.230358,91.4972822 129.651468,80.6680139 128.028269,79.0687108 C123.989819,75.0911498 110.388913,67.3956794 110.388913,67.3956794 C106.117992,69.5801681 102.83545,71.4604856 101.9847,78.4565594 C101.956785,78.6861183 101.931488,78.921185 101.90886,79.1619512 C101.377432,84.8115679 103.684768,88.7836934 107.677609,92.0885017 L109.230358,91.4972822" id="Fill-6"></path>
                <path d="M31.7643612,71.3744948 C26.7416486,43.8485017 44.1391133,19.9923345 74.7265944,23.3535889 C77.7249918,23.6830662 79.761931,24.0585366 84.0418654,25.6427875 C97.8431264,30.7530314 110.871882,47.6308014 110.561984,65.7997213 C110.498627,69.5179671 104.477452,69.9204379 103.495161,72.5273887 C101.317023,78.3080545 103.175197,84.3751664 102.917539,86.7787734 C102.693158,88.8719543 110.778348,89.8738323 107.677609,92.0885017 L85.9252808,110.766272 C68.4740624,115.801254 37.1079672,100.662021 31.7643612,71.3744948 Z" id="Fill-3"></path>
            </g>
        </g>
    </g>
</svg>